<?xml version="1.0" standalone="no"?>
<!DOCTYPE svg PUBLIC "-//W3C//DTD SVG 20010904//EN"
 "http://www.w3.org/TR/2001/REC-SVG-20010904/DTD/svg10.dtd">
<svg version="1.0" xmlns="http://www.w3.org/2000/svg"
 width="611.000000pt" height="408.000000pt" viewBox="0 0 611.000000 408.000000"
 preserveAspectRatio="xMidYMid meet">

<g transform="translate(0.000000,408.000000) scale(0.100000,-0.100000)"
fill="#000000" stroke="none">
<path d="M3988 2895 c-4 -4 8 -25 27 -47 42 -50 97 -153 125 -237 54 -163 116
-226 283 -290 26 -10 27 -13 27 -83 l0 -73 -47 -29 c-25 -17 -137 -108 -247
-204 -684 -594 -1289 -957 -2049 -1229 -562 -200 -1119 -302 -1675 -304 -226
-1 -230 -7 -23 -35 91 -12 208 -17 421 -18 306 -1 339 2 638 50 l153 25 79
-30 c167 -65 238 -75 520 -76 217 0 267 3 339 19 119 28 136 45 162 166 26
128 37 264 19 258 -7 -2 -23 -32 -35 -66 -66 -183 -179 -250 -437 -259 -148
-6 -268 12 -311 47 -20 17 -15 19 139 70 293 97 548 203 782 326 137 72 140
73 284 158 54 32 102 55 108 51 13 -8 13 -455 0 -550 -20 -138 -34 -155 -129
-165 -30 -3 -56 -10 -58 -16 -3 -9 89 -12 352 -12 271 -1 355 2 352 11 -2 7
-35 15 -79 18 -86 7 -121 26 -138 72 -23 63 -39 581 -20 618 10 17 22 19 109
19 160 0 149 6 259 -149 271 -383 379 -508 489 -559 56 -26 64 -27 272 -30
176 -3 213 -2 209 9 -3 8 -27 17 -54 21 -143 21 -227 82 -425 313 -156 183
-379 466 -379 481 0 6 30 37 66 69 209 185 290 425 208 621 -20 49 -13 74 36
118 62 56 120 47 120 -18 0 -55 48 -131 139 -218 47 -46 114 -112 148 -147 34
-36 65 -62 68 -60 26 26 33 268 10 345 -28 97 -135 180 -221 172 l-34 -3 44
-35 c51 -40 107 -110 126 -158 17 -44 3 -54 -22 -17 -41 58 -154 160 -205 184
-29 13 -54 30 -57 37 -17 43 133 138 235 150 52 6 57 5 90 -26 108 -101 274
-201 391 -234 97 -28 242 -37 389 -26 239 18 404 33 408 36 6 6 -110 144 -185
219 -135 136 -302 247 -438 292 -110 35 -250 37 -348 4 -62 -20 -188 -92 -188
-107 0 -3 55 -3 123 0 200 9 402 -26 532 -91 101 -51 194 -134 133 -120 -13 3
-63 22 -111 42 -49 19 -137 48 -195 63 -99 25 -122 27 -307 26 -212 0 -239 -4
-399 -60 -38 -13 -73 -24 -78 -24 -4 0 -8 26 -8 58 0 106 -49 254 -119 356
-11 16 -45 55 -76 87 -60 61 -59 81 2 52 83 -39 177 -174 213 -305 7 -27 16
-48 20 -48 10 0 30 80 30 120 0 17 -8 61 -17 98 -15 60 -23 74 -79 130 -68 68
-133 103 -238 127 -73 17 -238 30 -248 20z m82 -1319 c0 -207 -94 -370 -230
-396 -95 -18 -272 7 -291 41 -18 35 0 57 119 143 64 46 177 132 251 191 99 79
136 103 142 93 5 -7 9 -40 9 -72z"/>
<path d="M1915 2140 c-391 -62 -653 -281 -762 -637 -24 -80 -27 -103 -27 -258
-1 -183 10 -246 70 -388 41 -98 144 -244 189 -270 11 -6 231 39 283 58 8 3 -2
23 -32 59 -95 117 -158 256 -185 410 -15 83 -13 296 3 386 42 232 156 400 329
485 95 47 186 65 331 65 149 0 256 -21 361 -70 128 -60 197 -146 213 -270 9
-65 17 -79 33 -63 14 14 30 426 17 434 -5 3 -57 14 -116 23 -59 10 -132 22
-162 28 -75 13 -471 19 -545 8z"/>
<path d="M3044 2109 c-7 -12 9 -16 84 -22 68 -6 102 -22 129 -64 16 -24 18
-62 22 -345 2 -175 6 -318 9 -318 4 0 62 37 129 81 l123 82 0 228 c0 287 -8
273 149 267 126 -6 177 -24 250 -93 26 -25 52 -45 56 -45 13 0 160 133 160
144 0 16 -81 53 -160 72 -60 15 -130 18 -508 20 -245 1 -440 -2 -443 -7z"/>
</g>
</svg>
